<svg xmlns="http://www.w3.org/2000/svg" width="24" height="24" viewBox="0 0 24 24"><g><g><g/><g><path fill="#3e75c3" d="M12 .25C5.372.25 0 5.644 0 12.298c0 5.322 3.438 9.838 8.207 11.431.6.113.82-.261.82-.58l-.017-2.05c-3.338.729-4.043-1.614-4.043-1.614-.545-1.392-1.332-1.762-1.332-1.762-1.09-.748.083-.733.083-.733 1.204.085 1.837 1.242 1.837 1.242 1.071 1.841 2.809 1.31 3.493 1 .109-.778.42-1.309.762-1.612-2.665-.304-5.466-1.337-5.466-5.954 0-1.315.467-2.39 1.235-3.233-.123-.305-.535-1.53.117-3.188 0 0 1.008-.324 3.3 1.235.958-.268 1.984-.4 3.005-.406 1.019.005 2.046.139 3.004.406 2.29-1.559 3.296-1.235 3.296-1.235.655 1.659.244 2.883.12 3.188.77.843 1.234 1.918 1.234 3.233 0 4.628-2.806 5.647-5.48 5.945.431.372.815 1.107.815 2.231l-.015 3.305c0 .323.216.698.825.58A12.043 12.043 0 0 0 24 12.297C24 5.644 18.627.25 12 .25z"/></g></g></g></svg>