<svg xmlns="http://www.w3.org/2000/svg" width="24" height="24" viewBox="0 0 24 24"><g><g><g/><g><path fill="#ff810f" d="M19.127 9.806l-.001-.001v-.001zm-.001-.001l-1.686 1.139-5.383-7.828 1.686-1.14zm-2.018 1.419v-.002zm0 0l-1.036 1.74L7.84 8.151l1.037-1.743zm-1.204 2.314v-.001zm0 0l-.53 1.953-9.228-2.46.53-1.954zm-.815 4.654l-9.515-.868.188-2.016 9.514.87zm6.414-8.856l-2.01.346L17.857.346 19.869 0l1.634 9.334zm-6.457 11.46l-9.555.005-.001-2.024 9.555-.005z"/></g><g><path fill="#bebcbc" d="M16.666 14.14v8.273H4.133V14.14H2.5V24h15.79v-9.86z"/></g></g></g></svg>