<svg xmlns="http://www.w3.org/2000/svg" width="24" height="24" viewBox="0 0 24 24"><g><g><g/><g><path fill="#00aaec" d="M24.002 4.368a9.615 9.615 0 0 1-2.827.794A5.039 5.039 0 0 0 23.34 2.37a9.697 9.697 0 0 1-3.129 1.223A4.857 4.857 0 0 0 16.618 2c-2.718 0-4.922 2.26-4.922 5.049 0 .395.042.78.126 1.15-4.092-.212-7.72-2.22-10.151-5.277a5.143 5.143 0 0 0-.667 2.54c0 1.751.87 3.297 2.191 4.203a4.83 4.83 0 0 1-2.231-.63v.062c0 2.447 1.697 4.488 3.951 4.95a4.692 4.692 0 0 1-1.297.178c-.312 0-.622-.03-.927-.09.626 2.005 2.444 3.466 4.599 3.505A9.722 9.722 0 0 1 0 19.733a13.71 13.71 0 0 0 7.548 2.266c9.058 0 14.01-7.692 14.01-14.364 0-.219-.005-.437-.014-.655.963-.712 1.799-1.6 2.456-2.613"/></g></g></g></svg>