<?xml version="1.0" encoding="UTF-8"?>
<svg id="SVGDoc" width="24" height="24" xmlns="http://www.w3.org/2000/svg" version="1.1" xmlns:xlink="http://www.w3.org/1999/xlink" xmlns:avocode="https://avocode.com/" viewBox="0 0 24 24"><defs></defs><desc>Generated with Avocode.</desc><g><g><title>github</title><g><title>Background</title></g><g><title>Vector</title><path d="M11.9992,0.25c-6.6262,0 -11.9992,5.39381 -11.9992,12.0482c0,5.322 3.438,9.8375 8.20725,11.4309c0.6,0.1125 0.819,-0.2613 0.819,-0.5805l-0.0165,-2.0488c-3.33825,0.7281 -4.0425,-1.6151 -4.0425,-1.6151c-0.54525,-1.3913 -1.332,-1.7619 -1.332,-1.7619c-1.08975,-0.7478 0.0825,-0.7326 0.0825,-0.7326c1.20375,0.0851 1.8375,1.2416 1.8375,1.2416c1.071,1.8413 2.80875,1.3095 3.49275,1.0007c0.10875,-0.7785 0.41925,-1.3095 0.762,-1.6125c-2.66475,-0.3041 -5.466,-1.3372 -5.466,-5.9537c0,-1.3155 0.46725,-2.39061 1.23525,-3.23324c-0.12375,-0.30487 -0.5355,-1.52925 0.117,-3.18806c0,0 1.008,-0.32381 3.3,1.23487c0.95775,-0.26737 1.98375,-0.40049 3.00445,-0.40593c1.0193,0.00525 2.0461,0.13875 3.0045,0.40593c2.2905,-1.55868 3.2963,-1.23487 3.2963,-1.23487c0.6548,1.65881 0.243,2.88319 0.1192,3.18806c0.7696,0.84263 1.2338,1.91774 1.2338,3.23324c0,4.6275 -2.8058,5.6466 -5.4788,5.9447c0.4305,0.372 0.8145,1.1068 0.8145,2.2312l-0.015,3.3049c0,0.3225 0.216,0.6975 0.825,0.579c4.7648,-1.5947 8.1998,-6.1072 8.1998,-11.4279c0,-6.65439 -5.373,-12.0482 -12.0008,-12.0482z" fill="#3e75c3" fill-opacity="1"></path></g></g></g></svg>