<svg xmlns="http://www.w3.org/2000/svg" width="24" height="24" viewBox="0 0 24 24"><g><g><g/><g><path fill="#007ebb" d="M.606 8.087v14.821h4.677V8.087zm2.22-1.854c1.757 0 2.852-1.137 2.852-2.574-.033-1.463-1.095-2.569-2.82-2.569C1.13 1.09 0 2.2 0 3.663c0 1.437 1.098 2.57 2.792 2.57zM24 22.908v-8.242c0-4.59-2.612-6.722-5.936-6.722-2.68 0-4.36 1.451-4.67 2.468V8.086H8.14v14.822h5.255v-8.02c0-.446-.023-.892.112-1.212.362-.891 1.138-1.816 2.534-1.816 1.824 0 2.654 1.37 2.654 3.378v7.67H24z"/></g></g></g></svg>