<?xml version="1.0" encoding="UTF-8"?>
<svg id="SVGDoc" width="24" height="24" xmlns="http://www.w3.org/2000/svg" version="1.1" xmlns:xlink="http://www.w3.org/1999/xlink" xmlns:avocode="https://avocode.com/" viewBox="0 0 24 24"><defs></defs><desc>Generated with Avocode.</desc><g><g><title>stackoverflow</title><g><title>Background</title></g><g><title>Vector</title><path d="M19.1265,9.80625l-0.00099,-0.00144l0.00119,-0.00081zM19.12551,9.80481l-1.68501,1.13919l-5.38388,-7.82813l1.68638,-1.14zM17.1084,11.2237l-0.00073,-0.00043l0.00093,-0.00157zM17.10767,11.22327l-1.03597,1.74123l-8.23083,-4.81388l1.03725,-1.74243zM15.9037,13.5384l-0.00043,-0.00011l0.00043,-0.00159zM15.90327,13.53829l-0.52921,1.95291l-9.22819,-2.46l0.53063,-1.9543zM15.08906,18.1922l-9.51506,-0.8685l0.1875,-2.0156l9.51469,0.8694zM21.5034,9.33562l-2.0113,0.34594l-1.6344,-9.33562l2.0113,-0.34594l1.6344,9.33375zM15.0465,20.7962l-9.55575,0.0045l-0.00075,-2.0237l9.55537,-0.0049z" fill="#ff810f" fill-opacity="1"></path></g><g><title>Vector</title><path d="M16.6658,14.14v0v8.27306v0h-12.53324v0v-8.27306v0h-1.63256v0v9.86062v0h15.7901v0v-9.86062v0z" fill="#bebcbc" fill-opacity="1"></path></g></g></g></svg>