<?xml version="1.0" encoding="UTF-8"?>
<svg id="SVGDoc" width="24" height="24" xmlns="http://www.w3.org/2000/svg" version="1.1" xmlns:xlink="http://www.w3.org/1999/xlink" xmlns:avocode="https://avocode.com/" viewBox="0 0 24 24"><defs></defs><desc>Generated with Avocode.</desc><g><g><title>twitter</title><g><title>Background</title></g><g><title>Vector</title><path d="M24.0021,4.36756c-0.8962,0.40803 -1.8498,0.67597 -2.8274,0.79444c1.017,-0.624 1.7976,-1.61363 2.1653,-2.79225c-0.9525,0.57788 -2.0044,0.99825 -3.1288,1.22363c-0.8959,-0.98063 -2.1765,-1.59338 -3.5936,-1.59338c-2.7175,0 -4.9219,2.26069 -4.9219,5.04881c0,0.39563 0.0422,0.78 0.1267,1.14994c-4.09215,-0.21131 -7.71971,-2.21906 -10.15159,-5.27719c-0.42375,0.74813 -0.66637,1.61625 -0.66637,2.541c0,1.75088 0.86925,3.29625 2.19056,4.20225c-0.80569,-0.02437 -1.56656,-0.25425 -2.23125,-0.63v0.06188c0,2.44687 1.69744,4.48821 3.95137,4.95051c-0.4125,0.1185 -0.84806,0.1778 -1.29749,0.1778c-0.31118,0.0003 -0.62166,-0.0297 -0.92701,-0.0896c0.62682,2.0051 2.44407,3.4655 4.59938,3.5043c-1.68487,1.3551 -3.80906,2.1625 -6.11512,2.1625c-0.3975,0 -0.79032,-0.0231 -1.17488,-0.0694c2.17931,1.4301 4.7685,2.2665 7.54781,2.2665c9.05809,0 14.00949,-7.6924 14.00949,-14.36474c0,-0.21819 -0.0043,-0.43635 -0.0128,-0.65437c0.9626,-0.71213 1.7981,-1.6005 2.4559,-2.61319" fill="#00aaec" fill-opacity="1"></path></g></g></g></svg>