<?xml version="1.0" encoding="UTF-8"?>
<svg id="SVGDoc" width="25" height="17" xmlns="http://www.w3.org/2000/svg" version="1.1" xmlns:xlink="http://www.w3.org/1999/xlink" xmlns:avocode="https://avocode.com/" viewBox="0 0 25 17"><defs></defs><desc>Generated with Avocode.</desc><g><g><title>Union</title><path d="M0,2.5c0,-1.38071 1.11929,-2.5 2.5,-2.5c1.38071,0 2.5,1.11929 2.5,2.5c0,1.38071 -1.11929,2.5 -2.5,2.5c-1.38071,0 -2.5,-1.11929 -2.5,-2.5zM20,2.5c0,-1.38071 1.1193,-2.5 2.5,-2.5c1.3807,0 2.5,1.11929 2.5,2.5c0,1.38071 -1.1193,2.5 -2.5,2.5c-1.3807,0 -2.5,-1.11929 -2.5,-2.5zM14.1335,0.9824c0.6261,0.54256 0.6937,1.48989 0.1512,2.11593l-11.03524,12.73297c-0.54256,0.626 -1.48989,0.6937 -2.11593,0.1511c-0.62603,-0.5426 -0.6937,-1.4899 -0.15113,-2.1159l11.03521,-12.73297c0.5426,-0.62603 1.4899,-0.6937 2.1159,-0.15113zM13.289,15.6578c-0.5086,0.6539 -1.4511,0.7717 -2.105,0.2631c-0.6539,-0.5086 -0.7717,-1.451 -0.2631,-2.1049l5.1582,-6.63197c0.5086,-0.65392 1.451,-0.77172 2.1049,-0.26312c0.6539,0.50861 0.7718,1.45102 0.2631,2.10494z" fill="#dd9c3c" fill-opacity="1"></path></g></g></svg>